<?xml version="1.0" encoding="UTF-8" standalone="no"?>
<svg
   viewBox="0 0 24 24"
   version="1.1"
   id="svg1"
   sodipodi:docname="icon.svg"
   xml:space="preserve"
   inkscape:version="1.4.2 (ebf0e940d0, 2025-05-08)"
   xmlns:inkscape="http://www.inkscape.org/namespaces/inkscape"
   xmlns:sodipodi="http://sodipodi.sourceforge.net/DTD/sodipodi-0.dtd"
   xmlns="http://www.w3.org/2000/svg"
   xmlns:svg="http://www.w3.org/2000/svg"><defs
     id="defs1" /><sodipodi:namedview
     id="namedview1"
     pagecolor="#ffffff"
     bordercolor="#000000"
     borderopacity="0.25"
     inkscape:showpageshadow="2"
     inkscape:pageopacity="0.0"
     inkscape:pagecheckerboard="0"
     inkscape:deskcolor="#d1d1d1"
     inkscape:zoom="77.208333"
     inkscape:cx="12.673502"
     inkscape:cy="11.987048"
     inkscape:window-width="3840"
     inkscape:window-height="2084"
     inkscape:window-x="0"
     inkscape:window-y="0"
     inkscape:window-maximized="1"
     inkscape:current-layer="svg1" /><path
     d="M 7,18 V 14.91 C 6.28,14.58 5.61,14.18 5,13.71 V 18 H 7 M 5,22 H 3 V 20 H 1 v -2 h 2 v -7 h 2 v 1.43 C 6.8,14 9.27,15 12,15 c 2.73,0 5.2,-1 7,-2.57 V 11 h 2 v 7 h 2 v 2 h -2 v 2 H 19 V 20 H 5 v 2 M 17,14.91 V 18 h 2 v -4.29 c -0.61,0.47 -1.28,0.87 -2,1.2 M 16,18 v -2.68 c -0.64,0.23 -1.31,0.4 -2,0.52 V 18 h 2 m -3,0 V 15.96 L 12,16 11,15.96 V 18 h 2 m -3,0 V 15.84 C 9.31,15.72 8.64,15.55 8,15.32 V 18 Z"
     id="path1" /><path
     d="m 17.018768,7.0543115 c 0,3.1288925 -2.164855,6.0548305 -5.07388,6.7651735 C 9.0358632,13.109142 6.8710076,10.183204 6.8710076,7.0543115 V 3.6717246 l 5.0738804,-2.2550579 5.07388,2.2550579 v 3.3825869 m -5.07388,5.6376445 c 2.114117,-0.563764 3.946351,-3.0781539 3.946351,-5.5136165 V 4.4046182 l -3.946351,-1.758945 -3.9463514,1.758945 v 2.7737213 c 0,2.4354626 1.8322346,4.9498525 3.9463514,5.5136165 z"
     id="path1-53"
     style="stroke-width:0.563764" /></svg>
