<?xml version="1.0" encoding="UTF-8" standalone="no"?>
<svg
   viewBox="0 0 24 24"
   version="1.1"
   id="svg1"
   sodipodi:docname="icon.svg"
   xml:space="preserve"
   inkscape:version="1.4.3 (0d15f75042, 2025-12-25)"
   xmlns:inkscape="http://www.inkscape.org/namespaces/inkscape"
   xmlns:sodipodi="http://sodipodi.sourceforge.net/DTD/sodipodi-0.dtd"
   xmlns="http://www.w3.org/2000/svg"
   xmlns:svg="http://www.w3.org/2000/svg"><defs
     id="defs1" /><sodipodi:namedview
     id="namedview1"
     pagecolor="#ffffff"
     bordercolor="#000000"
     borderopacity="0.25"
     inkscape:showpageshadow="2"
     inkscape:pageopacity="0.0"
     inkscape:pagecheckerboard="0"
     inkscape:deskcolor="#d1d1d1"
     inkscape:zoom="77.208333"
     inkscape:cx="13.994603"
     inkscape:cy="12"
     inkscape:window-width="3840"
     inkscape:window-height="2084"
     inkscape:window-x="0"
     inkscape:window-y="0"
     inkscape:window-maximized="1"
     inkscape:current-layer="svg1" /><path
     d="m 7,18.738264 v -3.09 c -0.72,-0.33 -1.39,-0.73 -2,-1.2 v 4.29 h 2 m -2,4 H 3 v -2 H 1 v -2 h 2 v -7 h 2 v 1.43 c 1.8,1.57 4.27,2.57 7,2.57 2.73,0 5.2,-1 7,-2.57 v -1.43 h 2 v 7 h 2 v 2 h -2 v 2 h -2 v -2 H 5 v 2 m 12,-7.09 v 3.09 h 2 v -4.29 c -0.61,0.47 -1.28,0.87 -2,1.2 m -1,3.09 v -2.68 c -0.64,0.23 -1.31,0.4 -2,0.52 v 2.16 h 2 m -3,0 v -2.04 l -1,0.04 -1,-0.04 v 2.04 h 2 m -3,0 v -2.16 c -0.69,-0.12 -1.36,-0.29 -2,-0.52 v 2.68 z"
     id="path1" /><path
     d="m 12.057884,1.1433369 -5.60726,2.4921156 v 3.7381731 c 0,3.4578104 2.3924309,6.6913294 5.60726,7.4763464 3.214829,-0.785017 5.60726,-4.018536 5.60726,-7.4763464 V 3.6354525 Z"
     id="path1-2"
     style="stroke-width:0.623029" /></svg>
