<?xml version="1.0" encoding="UTF-8" standalone="no"?>
<svg
   viewBox="0 0 24 24"
   version="1.1"
   id="svg1"
   sodipodi:docname="icon.svg"
   xml:space="preserve"
   inkscape:version="1.4.2 (ebf0e940d0, 2025-05-08)"
   xmlns:inkscape="http://www.inkscape.org/namespaces/inkscape"
   xmlns:sodipodi="http://sodipodi.sourceforge.net/DTD/sodipodi-0.dtd"
   xmlns="http://www.w3.org/2000/svg"
   xmlns:svg="http://www.w3.org/2000/svg"><defs
     id="defs1" /><sodipodi:namedview
     id="namedview1"
     pagecolor="#ffffff"
     bordercolor="#000000"
     borderopacity="0.25"
     inkscape:showpageshadow="2"
     inkscape:pageopacity="0.0"
     inkscape:pagecheckerboard="0"
     inkscape:deskcolor="#d1d1d1"
     inkscape:zoom="77.208333"
     inkscape:cx="12.012952"
     inkscape:cy="11.974096"
     inkscape:window-width="3840"
     inkscape:window-height="2084"
     inkscape:window-x="0"
     inkscape:window-y="0"
     inkscape:window-maximized="1"
     inkscape:current-layer="svg1" /><path
     d="M 7,18 V 14.91 C 6.28,14.58 5.61,14.18 5,13.71 V 18 H 7 M 5,22 H 3 V 20 H 1 v -2 h 2 v -7 h 2 v 1.43 C 6.8,14 9.27,15 12,15 c 2.73,0 5.2,-1 7,-2.57 V 11 h 2 v 7 h 2 v 2 h -2 v 2 H 19 V 20 H 5 v 2 M 17,14.91 V 18 h 2 v -4.29 c -0.61,0.47 -1.28,0.87 -2,1.2 M 16,18 v -2.68 c -0.64,0.23 -1.31,0.4 -2,0.52 V 18 h 2 m -3,0 V 15.96 L 12,16 11,15.96 V 18 h 2 m -3,0 V 15.84 C 9.31,15.72 8.64,15.55 8,15.32 V 18 Z"
     id="path1" /><path
     d="M 9.4608164,5.9489656 V 7.8377714 H 13.238428 V 10.985781 H 9.4608164 v 1.888806 L 5.6832046,9.4117764 9.4608164,5.9489656 M 18.275244,5.0045618 14.497633,1.5417513 V 3.4305569 H 10.72002 v 3.1480107 h 3.777613 v 1.8888059 z"
     id="path1-5"
     style="stroke-width:0.629602" /></svg>
