<?xml version="1.0" encoding="UTF-8" standalone="no"?>
<svg
   viewBox="0 0 24 24"
   version="1.1"
   id="svg1"
   sodipodi:docname="icon.svg"
   xml:space="preserve"
   inkscape:version="1.4.2 (ebf0e940d0, 2025-05-08)"
   xmlns:inkscape="http://www.inkscape.org/namespaces/inkscape"
   xmlns:sodipodi="http://sodipodi.sourceforge.net/DTD/sodipodi-0.dtd"
   xmlns="http://www.w3.org/2000/svg"
   xmlns:svg="http://www.w3.org/2000/svg"><defs
     id="defs1" /><sodipodi:namedview
     id="namedview1"
     pagecolor="#ffffff"
     bordercolor="#000000"
     borderopacity="0.25"
     inkscape:showpageshadow="2"
     inkscape:pageopacity="0.0"
     inkscape:pagecheckerboard="0"
     inkscape:deskcolor="#d1d1d1"
     inkscape:zoom="77.208333"
     inkscape:cx="12.466271"
     inkscape:cy="12"
     inkscape:window-width="3840"
     inkscape:window-height="2084"
     inkscape:window-x="0"
     inkscape:window-y="0"
     inkscape:window-maximized="1"
     inkscape:current-layer="svg1" /><path
     d="M 7,18 V 14.91 C 6.28,14.58 5.61,14.18 5,13.71 V 18 H 7 M 5,22 H 3 V 20 H 1 v -2 h 2 v -7 h 2 v 1.43 C 6.8,14 9.27,15 12,15 c 2.73,0 5.2,-1 7,-2.57 V 11 h 2 v 7 h 2 v 2 h -2 v 2 H 19 V 20 H 5 v 2 M 17,14.91 V 18 h 2 v -4.29 c -0.61,0.47 -1.28,0.87 -2,1.2 M 16,18 v -2.68 c -0.64,0.23 -1.31,0.4 -2,0.52 V 18 h 2 m -3,0 V 15.96 L 12,16 11,15.96 V 18 h 2 m -3,0 V 15.84 C 9.31,15.72 8.64,15.55 8,15.32 V 18 Z"
     id="path1" /><path
     d="M 11.5614,11.697264 H 11.334742 L 11.108085,10.223988 C 10.428111,10.11066 9.8614673,9.714008 9.4081517,9.204029 L 8.0482057,9.770673 7.5948903,9.034036 8.7848431,8.1274053 c -0.2266577,-0.6799733 -0.2266577,-1.3599467 0,-2.0399191 L 7.5948903,5.2941842 8.0482057,4.557547 9.4081517,5.1241909 C 9.8614673,4.6142109 10.428111,4.2742251 11.108085,4.1042318 l 0.169992,-1.4732753 h 0.849967 l 0.226657,1.4732753 c 0.679973,0.1133286 1.303282,0.5099791 1.699933,1.0199591 L 15.41458,4.557547 15.867895,5.2941842 14.677942,6.1441509 c 0.113329,0.3399858 0.169993,0.6799725 0.169993,1.0199592 h 0.283323 c 0.283322,0 0.566644,0.056663 0.849966,0.1133286 V 7.1641101 L 15.924561,6.5974662 17.114514,5.6908348 C 17.227843,5.5775062 17.227843,5.4641776 17.171177,5.350849 L 16.037889,3.3675937 C 15.981224,3.1976012 15.867895,3.1976012 15.697902,3.1976012 L 14.281291,3.7642451 C 13.997969,3.537587 13.657983,3.3675937 13.317996,3.1976012 L 13.091339,1.6676615 c 0.05666,-0.056665 -0.11333,-0.1699931 -0.226658,-0.1699931 h -2.266577 c -0.113328,0 -0.283321,0.1133287 -0.283321,0.2266576 L 10.088124,3.2542651 C 9.7481378,3.3675937 9.4648161,3.5942517 9.1248296,3.7642451 L 7.7648836,3.1976012 c -0.1699933,0 -0.2833221,0 -0.3966509,0.1699925 L 6.2349443,5.350849 c -0.056665,0.1133286 0,0.2266572 0.1133288,0.3399858 L 7.538226,6.5974662 7.4815612,7.1641101 7.538226,7.7307539 6.3482731,8.6940492 C 6.2349443,8.8073778 6.2349443,8.9207073 6.2916084,9.034036 l 1.1332883,1.983254 c 0.056665,0.113329 0.1699933,0.113329 0.3399865,0.113329 L 9.181494,10.563975 c 0.2833221,0.226657 0.6233086,0.396651 0.963295,0.566644 l 0.226657,1.529939 c 0,0.11333 0.11333,0.226658 0.283323,0.226658 h 1.41661 C 11.788057,12.490566 11.674728,12.093914 11.5614,11.697264 M 13.997969,7.3341034 V 7.1641101 c 0,-1.2466173 -1.019959,-2.2665764 -2.266576,-2.2665764 -1.246617,0 -2.2665769,1.0199591 -2.2665769,2.2665764 0,1.2466172 1.0199599,2.2665759 2.2665769,2.2665759 0.396651,-0.963294 1.246617,-1.7565959 2.266576,-2.0965826 M 10.598104,7.1641101 c 0,-0.6233087 0.50998,-1.1332887 1.133288,-1.1332887 0.623309,0 1.133289,0.50998 1.133289,1.1332887 0,0.6233086 -0.50998,1.1332886 -1.133289,1.1332886 -0.623308,0 -1.133288,-0.50998 -1.133288,-1.1332886 m 4.533154,1.4166105 V 7.7307539 l -1.246617,1.2466172 1.246617,1.2466169 V 9.430686 c 0.793301,0 1.41661,0.623309 1.41661,1.416611 0,0.226658 -0.05666,0.453315 -0.169993,0.623309 l 0.623308,0.623308 C 17.681156,11.073955 17.397834,9.657344 16.377875,8.9773711 16.037889,8.6940492 15.584573,8.5807206 15.131258,8.5807206 m 0,3.6831874 c -0.793302,0 -1.41661,-0.623309 -1.41661,-1.416611 0,-0.226657 0.05666,-0.453315 0.169993,-0.623309 L 13.261332,9.60068 c -0.679973,1.01996 -0.396651,2.436569 0.623309,3.116543 0.39665,0.226658 0.793301,0.39665 1.246617,0.39665 v 0.849967 l 1.246617,-1.246617 -1.246617,-1.303282 z"
     id="path1-5"
     style="stroke-width:0.566644" /></svg>
