<?xml version="1.0" encoding="UTF-8" standalone="no"?>
<svg
   viewBox="0 0 24 24"
   version="1.1"
   id="svg1"
   sodipodi:docname="icon.svg"
   xml:space="preserve"
   inkscape:version="1.4.3 (0d15f75042, 2025-12-25)"
   xmlns:inkscape="http://www.inkscape.org/namespaces/inkscape"
   xmlns:sodipodi="http://sodipodi.sourceforge.net/DTD/sodipodi-0.dtd"
   xmlns="http://www.w3.org/2000/svg"
   xmlns:svg="http://www.w3.org/2000/svg"><defs
     id="defs1" /><sodipodi:namedview
     id="namedview1"
     pagecolor="#ffffff"
     bordercolor="#000000"
     borderopacity="0.25"
     inkscape:showpageshadow="2"
     inkscape:pageopacity="0.0"
     inkscape:pagecheckerboard="0"
     inkscape:deskcolor="#d1d1d1"
     inkscape:zoom="77.208333"
     inkscape:cx="13.994603"
     inkscape:cy="12"
     inkscape:window-width="3840"
     inkscape:window-height="2084"
     inkscape:window-x="0"
     inkscape:window-y="0"
     inkscape:window-maximized="1"
     inkscape:current-layer="svg1" /><path
     d="m 7,18.738264 v -3.09 c -0.72,-0.33 -1.39,-0.73 -2,-1.2 v 4.29 h 2 m -2,4 H 3 v -2 H 1 v -2 h 2 v -7 h 2 v 1.43 c 1.8,1.57 4.27,2.57 7,2.57 2.73,0 5.2,-1 7,-2.57 v -1.43 h 2 v 7 h 2 v 2 h -2 v 2 h -2 v -2 H 5 v 2 m 12,-7.09 v 3.09 h 2 v -4.29 c -0.61,0.47 -1.28,0.87 -2,1.2 m -1,3.09 v -2.68 c -0.64,0.23 -1.31,0.4 -2,0.52 v 2.16 h 2 m -3,0 v -2.04 l -1,0.04 -1,-0.04 v 2.04 h 2 m -3,0 v -2.16 c -0.69,-0.12 -1.36,-0.29 -2,-0.52 v 2.68 z"
     id="path1" /><path
     d="M 12.019913,10.12935 A 2.1765271,2.3040542 0 0 1 9.843386,7.8252963 2.1765271,2.3040542 0 0 1 12.019913,5.5212421 2.1765271,2.3040542 0 0 1 14.19644,7.8252963 2.1765271,2.3040542 0 0 1 12.019913,10.12935 m 4.620456,-1.665501 c 0.02488,-0.210656 0.04353,-0.4213133 0.04353,-0.6385527 0,-0.2172394 -0.01866,-0.4344788 -0.04353,-0.6583007 l 1.312135,-1.0730312 c 0.118154,-0.098745 0.149247,-0.276487 0.07462,-0.421313 L 16.783399,3.3949294 C 16.708774,3.2501031 16.540871,3.1908561 16.404061,3.2501031 L 14.855617,3.9084043 C 14.532248,3.6516669 14.19644,3.4278445 13.804666,3.2632692 L 13.574576,1.51877 C 13.549696,1.3607773 13.419109,1.2422828 13.263643,1.2422828 h -2.48746 c -0.155466,0 -0.286057,0.1184945 -0.310932,0.2764872 l -0.23009,1.7444992 C 9.843386,3.4278445 9.507579,3.6516669 9.1842093,3.9084043 L 7.6357658,3.2501031 c -0.1368103,-0.059247 -0.3047138,0 -0.3793376,0.1448263 l -1.2437297,2.277722 c -0.080842,0.144826 -0.04353,0.3225679 0.074623,0.421313 l 1.3121349,1.0730312 c -0.024875,0.2238219 -0.04353,0.4410613 -0.04353,0.6583007 0,0.2172394 0.018656,0.4278967 0.04353,0.6385527 L 6.087322,9.556629 C 5.9691676,9.655369 5.9318557,9.833115 6.012699,9.977941 l 1.2437297,2.277723 c 0.074624,0.144826 0.2425273,0.19749 0.3793376,0.144826 l 1.548443,-0.664884 c 0.3233697,0.26332 0.6591767,0.487143 1.0509517,0.651718 l 0.23009,1.744498 c 0.02487,0.157992 0.155466,0.276486 0.310932,0.276486 h 2.48746 c 0.155466,0 0.286058,-0.118494 0.310933,-0.276486 l 0.23009,-1.744498 c 0.391774,-0.171159 0.727582,-0.388398 1.050951,-0.651718 l 1.548444,0.664884 c 0.13681,0.05266 0.304713,0 0.379338,-0.144826 l 1.243729,-2.277723 c 0.07462,-0.144826 0.04353,-0.322567 -0.07462,-0.421312 z"
     id="path1-5"
     style="stroke-width:0.639823" /></svg>
